<svg xmlns="http://www.w3.org/2000/svg" width="900" height="600" viewBox="-72 -48 144 96"><path fill="#fff" d="M-72-48v96H72v-96z"/><g stroke="#000" stroke-width="4"><path transform="rotate(-56.30993247402022)" d="M12-50h-24m24 6h-24m24 6h-24m11 76h-11m24 0H1m-2 6h-11m24 0H1m-2 6h-11m24 0H1"/><path transform="rotate(-123.6900675259798)" d="M-12-50h24m-24 6h11m2 0h11m-24 6h24m-24 76h11m2 0h11m-24 6h24m-24 6h11m2 0h11"/></g><g transform="rotate(-56.30993247402022)"><path fill="#cd2e3a" d="M0 12c-9.9411255 0-18-8.0588745-18-18s8.0588745-18 18-18c13.254834 0 24 10.745166 24 24S13.254834 24 0 24z"/><path fill="#0047a0" d="M0 24c6.627417 0 12-5.372583 12-12S6.627417 0 0 0s-12-5.372583-12-12 5.372583-12 12-12c-13.254834 0-24 10.745166-24 24s10.745166 24 24 24"/></g></svg>