<svg 
 xmlns="http://www.w3.org/2000/svg"
 xmlns:xlink="http://www.w3.org/1999/xlink"
 width="1425px" height="403px">
<path fill-rule="evenodd"  fill="rgb(211, 255, 71)"
 d="M1411.187,75.658 L1348.212,75.658 L1289.337,398.539 L1199.540,398.539 L1258.415,75.658 L1195.440,75.658 L1208.356,4.825 L1424.103,4.825 L1411.187,75.658 ZM1080.689,382.011 C1061.672,396.768 1034.939,402.670 987.125,402.670 C899.660,402.670 877.510,380.240 891.287,304.685 L945.965,4.825 L1035.762,4.825 L980.654,307.046 C977.533,324.164 983.714,331.837 1000.624,331.837 C1016.951,331.837 1025.930,324.164 1029.051,307.046 L1084.159,4.825 L1173.957,4.825 L1119.279,304.685 C1112.391,342.462 1100.290,367.254 1080.689,382.011 ZM836.274,321.803 C825.618,380.240 788.875,402.670 704.325,402.670 C620.359,402.670 592.378,380.240 603.034,321.803 L646.841,81.561 C657.496,23.124 694.240,0.693 778.206,0.693 C862.173,0.693 890.736,23.124 880.080,81.561 L836.274,321.803 ZM765.936,67.985 C748.443,67.985 741.859,72.117 739.276,86.283 L697.191,317.081 C694.608,331.247 699.685,335.379 717.762,335.379 C734.671,335.379 741.363,330.657 743.839,317.081 L785.924,86.283 C788.399,72.707 783.429,67.985 765.936,67.985 ZM513.273,193.713 L513.058,194.894 C561.545,200.796 572.983,224.407 561.144,289.338 C546.075,371.976 519.074,398.539 451.434,398.539 L303.910,398.539 L375.701,4.825 L508.648,4.825 C589.116,4.825 603.380,22.533 588.634,103.401 C577.117,166.560 562.334,183.678 513.273,193.713 ZM405.977,331.247 L432.800,331.247 C455.541,331.247 461.282,325.344 466.879,294.650 L472.153,265.727 C477.427,236.803 473.471,229.720 451.313,229.720 L424.490,229.720 L405.977,331.247 ZM474.803,72.117 L453.228,72.117 L436.222,165.380 L457.797,165.380 C482.978,164.790 488.611,159.477 493.885,130.554 L498.298,106.352 C503.357,78.610 499.293,72.117 474.803,72.117 ZM173.882,398.539 L179.442,304.095 L121.132,304.095 L92.249,398.539 L0.702,398.539 L131.386,4.825 L277.744,4.825 L265.429,398.539 L173.882,398.539 ZM194.371,59.130 L140.982,236.803 L184.132,236.803 L195.538,59.130 L194.371,59.130 Z"/>
</svg>