<svg 
 xmlns="http://www.w3.org/2000/svg"
 xmlns:xlink="http://www.w3.org/1999/xlink"
 width="1933px" height="403px">
<path fill-rule="evenodd"  fill="rgb(211, 255, 71)"
 d="M1919.117,75.658 L1856.143,75.658 L1797.267,398.539 L1707.470,398.539 L1766.345,75.658 L1703.371,75.658 L1716.287,4.825 L1932.033,4.825 L1919.117,75.658 ZM1664.236,139.998 L1577.355,139.998 L1586.719,88.644 C1588.871,76.839 1582.260,71.526 1567.099,71.526 C1550.772,71.526 1542.223,76.839 1540.071,88.644 L1498.740,315.310 C1496.695,326.525 1503.306,331.837 1519.050,331.837 C1534.794,331.837 1543.343,326.525 1545.388,315.310 L1556.689,253.331 L1643.571,253.331 L1633.023,311.178 C1619.739,380.830 1591.267,402.670 1513.714,402.670 L1479.895,402.670 C1419.252,402.670 1394.465,375.518 1404.906,318.261 L1445.376,96.318 C1457.646,29.026 1490.218,0.693 1553.193,0.693 L1587.012,0.693 C1662.125,1.284 1685.718,18.992 1677.368,67.985 L1664.236,139.998 ZM1265.488,398.539 L1271.047,304.095 L1212.737,304.095 L1183.854,398.539 L1092.307,398.539 L1222.992,4.825 L1369.350,4.825 L1357.035,398.539 L1265.488,398.539 ZM1285.977,59.130 L1232.588,236.803 L1275.737,236.803 L1287.143,59.130 L1285.977,59.130 ZM1071.884,75.658 L1013.009,398.539 L923.212,398.539 L982.087,75.658 L919.112,75.658 L932.028,4.825 L1147.775,4.825 L1134.859,75.658 L1071.884,75.658 ZM691.142,398.539 L681.804,91.596 L680.638,91.596 L629.917,398.539 L547.117,398.539 L618.908,4.825 L750.105,4.825 L760.026,311.768 L761.408,310.588 L810.748,4.825 L894.131,4.825 L822.340,398.539 L691.142,398.539 ZM506.884,321.803 C496.229,380.240 459.485,402.670 374.936,402.670 C290.970,402.670 262.989,380.240 273.645,321.803 L317.451,81.561 C328.107,23.124 364.851,0.693 448.817,0.693 C532.783,0.693 561.347,23.124 550.691,81.561 L506.884,321.803 ZM436.547,67.985 C419.054,67.985 412.469,72.117 409.886,86.283 L367.802,317.081 C365.218,331.247 370.296,335.379 388.372,335.379 C405.282,335.379 411.974,330.657 414.450,317.081 L456.534,86.283 C459.010,72.707 454.040,67.985 436.547,67.985 ZM262.484,139.998 L175.602,139.998 L184.966,88.644 C187.119,76.839 180.507,71.526 165.346,71.526 C149.020,71.526 140.471,76.839 138.318,88.644 L96.987,315.310 C94.942,326.525 101.553,331.837 117.297,331.837 C133.041,331.837 141.590,326.525 143.635,315.310 L154.936,253.331 L241.818,253.331 L231.270,311.178 C217.986,380.830 189.514,402.670 111.961,402.670 L78.142,402.670 C17.499,402.670 -7.288,375.518 3.153,318.261 L43.623,96.318 C55.893,29.026 88.465,0.693 151.440,0.693 L185.259,0.693 C260.372,1.284 283.965,18.992 275.615,67.985 L262.484,139.998 Z"/>
</svg>