<svg 
 xmlns="http://www.w3.org/2000/svg"
 xmlns:xlink="http://www.w3.org/1999/xlink"
 width="1270px" height="403px">
<path fill-rule="evenodd"  fill="rgb(211, 255, 71)"
 d="M1266.978,77.429 L1258.367,124.651 L1178.482,124.651 L1181.927,105.762 C1188.062,72.117 1185.900,67.985 1164.908,67.985 C1142.167,67.985 1136.534,73.297 1132.336,96.318 L1127.600,122.290 C1123.187,146.491 1127.466,151.804 1154.271,158.297 C1246.070,182.498 1254.305,194.894 1238.160,283.435 C1220.831,378.469 1193.094,402.670 1103.297,402.670 C1011.751,402.670 993.145,383.191 1007.998,301.733 L1013.918,269.268 L1097.301,269.268 L1092.135,297.602 C1086.215,330.067 1088.745,335.379 1112.069,335.379 C1131.894,335.379 1139.968,329.476 1143.089,312.358 L1150.839,269.859 C1155.144,246.248 1151.816,242.116 1119.610,233.262 C1037.447,213.782 1027.094,200.206 1040.073,125.832 L1044.486,101.630 C1059.447,19.582 1082.716,0.693 1170.181,0.693 C1253.564,0.693 1277.526,19.582 1266.978,77.429 ZM790.349,398.539 L812.551,72.117 L811.385,72.117 L714.546,398.539 L587.430,398.539 L615.489,4.825 L702.371,4.825 L665.618,340.692 L666.201,340.692 L763.596,4.825 L884.881,4.825 L859.207,340.692 L860.373,340.692 L946.106,4.825 L1032.988,4.825 L917.464,398.539 L790.349,398.539 ZM484.207,75.658 L468.492,161.838 L545.461,161.838 L533.191,229.130 L456.222,229.130 L438.247,327.706 L528.045,327.706 L515.129,398.539 L335.534,398.539 L407.325,4.825 L580.506,4.825 L567.590,75.658 L484.207,75.658 ZM144.282,398.539 L134.944,91.596 L133.778,91.596 L83.056,398.539 L0.256,398.539 L72.047,4.825 L203.245,4.825 L213.166,311.768 L214.547,310.588 L263.887,4.825 L347.270,4.825 L275.479,398.539 L144.282,398.539 Z"/>
</svg>