<svg 
 xmlns="http://www.w3.org/2000/svg"
 xmlns:xlink="http://www.w3.org/1999/xlink"
 width="952px" height="287px">
<path fill-rule="evenodd"  fill="rgb(211, 255, 71)"
 d="M943.258,53.987 L882.508,53.987 L872.621,115.158 L928.697,115.158 L920.977,162.922 L864.900,162.922 L853.591,232.892 L919.013,232.892 L910.886,283.170 L780.041,283.170 L825.212,3.709 L951.384,3.709 L943.258,53.987 ZM769.521,103.846 C763.069,141.135 749.721,155.380 715.705,160.827 L715.569,161.665 C750.103,168.788 756.820,177.168 752.861,206.915 L740.536,283.170 L675.113,283.170 L688.048,203.145 C690.012,190.994 683.468,186.804 661.377,186.804 L650.332,186.804 L634.755,283.170 L569.333,283.170 L614.504,3.709 L695.645,3.709 C766.590,3.709 783.404,17.954 774.939,70.327 L769.521,103.846 ZM692.173,51.473 L672.206,51.473 L658.120,138.621 L670.864,138.621 C693.380,138.621 699.223,134.012 702.406,114.320 L709.178,72.422 C711.548,57.757 706.617,51.473 692.173,51.473 ZM538.631,228.702 C531.927,270.182 505.563,286.103 443.964,286.103 C382.790,286.103 361.998,270.182 368.703,228.702 L396.266,58.176 C402.971,16.697 429.334,0.776 490.508,0.776 C551.682,0.776 572.899,16.697 566.194,58.176 L538.631,228.702 ZM482.788,48.540 C470.043,48.540 465.321,51.473 463.696,61.528 L437.216,225.351 C435.591,235.406 439.365,238.339 452.534,238.339 C464.854,238.339 469.644,234.987 471.202,225.351 L497.681,61.528 C499.239,51.892 495.532,48.540 482.788,48.540 ZM327.700,53.987 L290.655,283.170 L225.233,283.170 L262.277,53.987 L216.397,53.987 L224.523,3.709 L381.707,3.709 L373.580,53.987 L327.700,53.987 ZM182.740,88.762 L124.540,88.762 L126.707,75.355 C130.567,51.473 128.917,48.540 113.623,48.540 C97.055,48.540 93.047,52.311 90.406,68.651 L87.426,87.086 C84.650,104.265 87.863,108.035 107.510,112.644 C174.829,129.822 181.053,138.621 170.895,201.469 C159.992,268.925 140.222,286.103 74.800,286.103 C8.103,286.103 -5.806,272.277 3.540,214.457 L7.265,191.413 L68.014,191.413 L64.764,211.524 C61.039,234.568 62.978,238.339 79.971,238.339 C94.415,238.339 100.190,234.149 102.154,221.999 L107.030,191.832 C109.739,175.073 107.239,172.140 83.616,165.855 C23.402,152.029 15.613,142.392 23.722,89.600 L26.498,72.422 C35.912,14.183 52.523,0.776 116.246,0.776 C176.995,0.776 194.795,14.183 188.158,55.243 L182.740,88.762 Z"/>
</svg>