<svg 
 xmlns="http://www.w3.org/2000/svg"
 xmlns:xlink="http://www.w3.org/1999/xlink"
 width="1411px" height="403px">
<path fill-rule="evenodd"  fill="rgb(211, 255, 71)"
 d="M1407.899,77.429 L1399.288,124.651 L1319.404,124.651 L1322.848,105.762 C1328.983,72.117 1326.821,67.985 1305.829,67.985 C1283.089,67.985 1277.455,73.297 1273.257,96.318 L1268.522,122.290 C1264.109,146.491 1268.388,151.804 1295.193,158.297 C1386.991,182.498 1395.227,194.894 1379.082,283.435 C1361.753,378.469 1334.016,402.670 1244.219,402.670 C1152.672,402.670 1134.066,383.191 1148.919,301.733 L1154.839,269.268 L1238.222,269.268 L1233.056,297.602 C1227.136,330.067 1229.666,335.379 1252.990,335.379 C1272.815,335.379 1280.889,329.476 1284.010,312.358 L1291.760,269.859 C1296.065,246.248 1292.737,242.116 1260.532,233.262 C1178.368,213.782 1168.015,200.206 1180.994,125.832 L1185.407,101.630 C1200.368,19.582 1223.638,0.693 1311.102,0.693 C1394.486,0.693 1418.447,19.582 1407.899,77.429 ZM997.743,398.539 L1061.149,66.804 L1059.982,66.804 L941.766,398.539 L838.557,398.539 L849.699,65.623 L848.533,65.623 L787.828,398.539 L707.360,398.539 L779.151,4.825 L920.844,4.825 L908.069,314.719 L909.236,314.719 L1009.475,4.825 L1151.168,4.825 L1079.377,398.539 L997.743,398.539 ZM577.332,398.539 L582.892,304.095 L524.582,304.095 L495.698,398.539 L404.152,398.539 L534.836,4.825 L681.194,4.825 L668.879,398.539 L577.332,398.539 ZM597.821,59.130 L544.432,236.803 L587.581,236.803 L598.987,59.130 L597.821,59.130 ZM342.912,75.658 L327.197,161.838 L404.166,161.838 L391.896,229.130 L314.927,229.130 L296.952,327.706 L386.750,327.706 L373.834,398.539 L194.239,398.539 L266.030,4.825 L439.211,4.825 L426.295,75.658 L342.912,75.658 ZM152.824,75.658 L93.949,398.539 L4.152,398.539 L63.027,75.658 L0.052,75.658 L12.968,4.825 L228.715,4.825 L215.799,75.658 L152.824,75.658 Z"/>
</svg>